<svg xmlns="http://www.w3.org/2000/svg" xmlns:xlink="http://www.w3.org/1999/xlink" width="1080" zoomAndPan="magnify" viewBox="0 0 810 809.999993" height="1080" preserveAspectRatio="xMidYMid meet" version="1.0"><path fill="#ffffff" d="M 400.273438 367.707031 C 398.941406 367.714844 397.609375 367.789062 396.28125 367.925781 C 394.957031 368.0625 393.640625 368.265625 392.332031 368.535156 C 391.027344 368.804688 389.734375 369.132812 388.460938 369.527344 C 387.1875 369.921875 385.9375 370.378906 384.707031 370.894531 C 383.476562 371.414062 382.277344 371.988281 381.101562 372.625 C 379.929688 373.257812 378.789062 373.949219 377.6875 374.695312 C 376.582031 375.441406 375.515625 376.242188 374.488281 377.09375 C 373.460938 377.945312 372.476562 378.84375 371.539062 379.792969 C 370.601562 380.738281 369.710938 381.730469 368.871094 382.765625 C 368.03125 383.800781 367.242188 384.875 366.503906 385.988281 C 365.769531 387.101562 365.089844 388.246094 364.464844 389.425781 C 363.84375 390.605469 363.277344 391.8125 362.773438 393.046875 C 362.269531 394.28125 361.824219 395.535156 361.445312 396.816406 C 361.0625 398.09375 360.746094 399.386719 360.488281 400.695312 C 360.234375 402.003906 360.046875 403.324219 359.917969 404.652344 C 359.792969 405.980469 359.734375 407.308594 359.738281 408.644531 C 359.746094 409.976562 359.816406 411.308594 359.953125 412.636719 C 360.085938 413.960938 360.289062 415.277344 360.554688 416.585938 C 360.816406 417.894531 361.144531 419.183594 361.539062 420.460938 C 361.929688 421.734375 362.382812 422.988281 362.898438 424.21875 C 363.414062 425.449219 363.984375 426.652344 364.617188 427.824219 C 365.25 429 365.941406 430.140625 366.683594 431.246094 C 367.429688 432.351562 368.226562 433.421875 369.074219 434.449219 C 369.925781 435.476562 370.824219 436.460938 371.769531 437.402344 C 372.714844 438.34375 373.703125 439.234375 374.738281 440.078125 C 375.769531 440.921875 376.84375 441.710938 377.953125 442.449219 C 379.066406 443.1875 380.210938 443.867188 381.386719 444.496094 C 382.566406 445.121094 383.773438 445.6875 385.003906 446.195312 C 386.238281 446.703125 387.496094 447.148438 388.773438 447.53125 C 390.050781 447.914062 391.34375 448.234375 392.652344 448.492188 C 393.960938 448.75 395.277344 448.941406 396.605469 449.070312 C 397.933594 449.199219 399.265625 449.261719 400.597656 449.257812 C 401.929688 449.257812 403.261719 449.1875 404.589844 449.054688 C 405.914062 448.921875 407.234375 448.722656 408.542969 448.460938 C 409.847656 448.199219 411.140625 447.875 412.417969 447.484375 C 413.691406 447.09375 414.945312 446.644531 416.175781 446.132812 C 417.410156 445.621094 418.613281 445.046875 419.789062 444.417969 C 420.964844 443.789062 422.105469 443.101562 423.214844 442.359375 C 424.320312 441.617188 425.390625 440.820312 426.421875 439.972656 C 427.449219 439.128906 428.4375 438.230469 429.378906 437.289062 C 430.320312 436.34375 431.214844 435.355469 432.058594 434.324219 C 432.90625 433.292969 433.699219 432.222656 434.4375 431.113281 C 435.179688 430 435.863281 428.859375 436.492188 427.683594 C 437.117188 426.503906 437.6875 425.300781 438.195312 424.066406 C 438.707031 422.835938 439.15625 421.582031 439.542969 420.304688 C 439.929688 419.027344 440.25 417.734375 440.511719 416.425781 C 440.773438 415.117188 440.964844 413.800781 441.097656 412.472656 C 441.226562 411.144531 441.292969 409.816406 441.292969 408.480469 C 441.289062 407.140625 441.21875 405.804688 441.085938 404.472656 C 440.949219 403.140625 440.75 401.820312 440.484375 400.503906 C 440.21875 399.191406 439.890625 397.894531 439.496094 396.617188 C 439.105469 395.335938 438.648438 394.078125 438.132812 392.839844 C 437.617188 391.605469 437.039062 390.398438 436.40625 389.21875 C 435.769531 388.039062 435.078125 386.894531 434.332031 385.78125 C 433.585938 384.671875 432.785156 383.597656 431.933594 382.566406 C 431.078125 381.53125 430.175781 380.542969 429.226562 379.597656 C 428.277344 378.65625 427.285156 377.757812 426.246094 376.914062 C 425.207031 376.066406 424.132812 375.273438 423.015625 374.53125 C 421.898438 373.789062 420.75 373.105469 419.566406 372.480469 C 418.382812 371.851562 417.171875 371.28125 415.933594 370.773438 C 414.695312 370.265625 413.433594 369.816406 412.152344 369.433594 C 410.867188 369.046875 409.570312 368.726562 408.253906 368.46875 C 406.941406 368.210938 405.617188 368.019531 404.28125 367.890625 C 402.949219 367.765625 401.613281 367.703125 400.273438 367.707031 Z M 268.25 367.707031 C 266.917969 367.714844 265.585938 367.789062 264.261719 367.925781 C 262.933594 368.0625 261.617188 368.265625 260.3125 368.535156 C 259.003906 368.804688 257.714844 369.132812 256.441406 369.527344 C 255.164062 369.921875 253.914062 370.378906 252.683594 370.894531 C 251.453125 371.414062 250.253906 371.988281 249.082031 372.625 C 247.90625 373.257812 246.769531 373.949219 245.664062 374.695312 C 244.558594 375.441406 243.492188 376.242188 242.464844 377.09375 C 241.4375 377.945312 240.457031 378.84375 239.519531 379.792969 C 238.578125 380.738281 237.691406 381.730469 236.847656 382.765625 C 236.007812 383.800781 235.21875 384.875 234.484375 385.988281 C 233.746094 387.101562 233.066406 388.246094 232.445312 389.425781 C 231.820312 390.605469 231.257812 391.8125 230.75 393.046875 C 230.246094 394.28125 229.804688 395.535156 229.421875 396.816406 C 229.039062 398.09375 228.722656 399.386719 228.46875 400.695312 C 228.210938 402.003906 228.023438 403.324219 227.898438 404.652344 C 227.773438 405.980469 227.710938 407.3125 227.71875 408.644531 C 227.722656 409.976562 227.792969 411.308594 227.929688 412.636719 C 228.066406 413.960938 228.265625 415.277344 228.53125 416.585938 C 228.796875 417.894531 229.125 419.183594 229.515625 420.460938 C 229.90625 421.734375 230.359375 422.988281 230.875 424.21875 C 231.390625 425.449219 231.964844 426.652344 232.597656 427.824219 C 233.230469 429 233.917969 430.140625 234.664062 431.246094 C 235.40625 432.351562 236.203125 433.421875 237.054688 434.449219 C 237.902344 435.476562 238.800781 436.460938 239.746094 437.402344 C 240.691406 438.34375 241.683594 439.234375 242.714844 440.078125 C 243.75 440.921875 244.820312 441.710938 245.933594 442.449219 C 247.042969 443.1875 248.1875 443.867188 249.367188 444.496094 C 250.542969 445.121094 251.75 445.6875 252.984375 446.195312 C 254.214844 446.703125 255.472656 447.148438 256.75 447.53125 C 258.027344 447.914062 259.320312 448.234375 260.628906 448.492188 C 261.9375 448.75 263.253906 448.945312 264.582031 449.070312 C 265.910156 449.199219 267.242188 449.261719 268.574219 449.257812 C 269.910156 449.257812 271.238281 449.1875 272.566406 449.054688 C 273.894531 448.921875 275.210938 448.722656 276.519531 448.460938 C 277.828125 448.199219 279.117188 447.875 280.394531 447.484375 C 281.667969 447.09375 282.921875 446.644531 284.15625 446.132812 C 285.386719 445.621094 286.589844 445.046875 287.765625 444.417969 C 288.941406 443.789062 290.082031 443.101562 291.191406 442.359375 C 292.296875 441.617188 293.367188 440.820312 294.398438 439.972656 C 295.429688 439.128906 296.414062 438.230469 297.355469 437.289062 C 298.296875 436.34375 299.191406 435.355469 300.039062 434.324219 C 300.882812 433.292969 301.675781 432.222656 302.414062 431.113281 C 303.15625 430 303.839844 428.859375 304.46875 427.683594 C 305.097656 426.503906 305.664062 425.300781 306.175781 424.066406 C 306.683594 422.835938 307.132812 421.582031 307.519531 420.304688 C 307.90625 419.027344 308.230469 417.734375 308.488281 416.425781 C 308.75 415.117188 308.945312 413.800781 309.074219 412.472656 C 309.207031 411.144531 309.269531 409.816406 309.269531 408.480469 C 309.265625 407.144531 309.195312 405.808594 309.0625 404.472656 C 308.925781 403.140625 308.726562 401.820312 308.460938 400.507812 C 308.195312 399.195312 307.867188 397.898438 307.472656 396.617188 C 307.082031 395.335938 306.628906 394.078125 306.109375 392.84375 C 305.59375 391.605469 305.019531 390.398438 304.382812 389.21875 C 303.75 388.039062 303.058594 386.894531 302.3125 385.78125 C 301.5625 384.671875 300.765625 383.597656 299.910156 382.566406 C 299.058594 381.535156 298.15625 380.546875 297.207031 379.601562 C 296.257812 378.65625 295.261719 377.761719 294.226562 376.914062 C 293.1875 376.066406 292.109375 375.273438 290.996094 374.535156 C 289.878906 373.792969 288.730469 373.109375 287.546875 372.480469 C 286.363281 371.851562 285.152344 371.285156 283.914062 370.773438 C 282.675781 370.265625 281.414062 369.820312 280.132812 369.433594 C 278.847656 369.046875 277.550781 368.726562 276.238281 368.46875 C 274.921875 368.210938 273.597656 368.019531 272.265625 367.890625 C 270.933594 367.765625 269.59375 367.703125 268.257812 367.707031 Z M 532.324219 367.707031 C 530.988281 367.714844 529.660156 367.789062 528.332031 367.925781 C 527.007812 368.0625 525.691406 368.265625 524.382812 368.535156 C 523.078125 368.804688 521.785156 369.132812 520.511719 369.527344 C 519.238281 369.921875 517.984375 370.378906 516.757812 370.894531 C 515.527344 371.414062 514.324219 371.988281 513.152344 372.625 C 511.980469 373.257812 510.839844 373.949219 509.734375 374.695312 C 508.628906 375.441406 507.5625 376.242188 506.539062 377.09375 C 505.511719 377.945312 504.527344 378.84375 503.589844 379.792969 C 502.652344 380.738281 501.761719 381.730469 500.921875 382.765625 C 500.078125 383.800781 499.289062 384.875 498.554688 385.988281 C 497.820312 387.101562 497.140625 388.246094 496.515625 389.425781 C 495.894531 390.605469 495.328125 391.8125 494.824219 393.046875 C 494.320312 394.28125 493.875 395.535156 493.492188 396.816406 C 493.113281 398.09375 492.792969 399.386719 492.539062 400.695312 C 492.285156 402.003906 492.09375 403.324219 491.96875 404.652344 C 491.84375 405.980469 491.785156 407.3125 491.789062 408.644531 C 491.792969 409.976562 491.867188 411.308594 492 412.636719 C 492.136719 413.960938 492.335938 415.277344 492.601562 416.585938 C 492.867188 417.894531 493.195312 419.183594 493.589844 420.460938 C 493.980469 421.734375 494.433594 422.988281 494.949219 424.21875 C 495.460938 425.449219 496.035156 426.652344 496.667969 427.824219 C 497.300781 429 497.988281 430.140625 498.734375 431.246094 C 499.480469 432.351562 500.277344 433.421875 501.125 434.449219 C 501.976562 435.476562 502.871094 436.460938 503.820312 437.402344 C 504.765625 438.34375 505.753906 439.234375 506.789062 440.078125 C 507.820312 440.921875 508.894531 441.710938 510.003906 442.449219 C 511.117188 443.1875 512.261719 443.867188 513.4375 444.496094 C 514.617188 445.121094 515.820312 445.6875 517.054688 446.195312 C 518.289062 446.703125 519.542969 447.148438 520.820312 447.53125 C 522.097656 447.914062 523.390625 448.234375 524.699219 448.492188 C 526.007812 448.75 527.328125 448.945312 528.65625 449.070312 C 529.984375 449.199219 531.3125 449.261719 532.648438 449.257812 C 533.980469 449.257812 535.3125 449.1875 536.640625 449.054688 C 537.964844 448.921875 539.285156 448.722656 540.589844 448.460938 C 541.898438 448.199219 543.191406 447.875 544.464844 447.484375 C 545.742188 447.09375 546.996094 446.644531 548.226562 446.132812 C 549.457031 445.621094 550.660156 445.046875 551.835938 444.417969 C 553.011719 443.789062 554.15625 443.101562 555.261719 442.359375 C 556.371094 441.617188 557.441406 440.820312 558.46875 439.972656 C 559.5 439.128906 560.484375 438.230469 561.429688 437.289062 C 562.371094 436.34375 563.265625 435.355469 564.109375 434.324219 C 564.953125 433.292969 565.746094 432.222656 566.488281 431.113281 C 567.226562 430 567.910156 428.859375 568.539062 427.683594 C 569.167969 426.503906 569.738281 425.300781 570.246094 424.066406 C 570.757812 422.835938 571.203125 421.582031 571.589844 420.304688 C 571.976562 419.027344 572.300781 417.734375 572.5625 416.425781 C 572.820312 415.117188 573.015625 413.800781 573.148438 412.472656 C 573.277344 411.144531 573.34375 409.816406 573.34375 408.480469 C 573.339844 407.140625 573.269531 405.804688 573.132812 404.472656 C 573 403.140625 572.796875 401.820312 572.535156 400.503906 C 572.269531 399.191406 571.9375 397.894531 571.546875 396.617188 C 571.152344 395.335938 570.699219 394.078125 570.183594 392.839844 C 569.667969 391.605469 569.089844 390.398438 568.457031 389.21875 C 567.820312 388.039062 567.128906 386.890625 566.382812 385.78125 C 565.636719 384.667969 564.835938 383.597656 563.980469 382.5625 C 563.128906 381.53125 562.226562 380.542969 561.277344 379.597656 C 560.328125 378.65625 559.335938 377.757812 558.296875 376.914062 C 557.257812 376.066406 556.179688 375.273438 555.066406 374.53125 C 553.949219 373.789062 552.800781 373.105469 551.617188 372.476562 C 550.433594 371.851562 549.222656 371.28125 547.984375 370.773438 C 546.746094 370.265625 545.484375 369.816406 544.199219 369.433594 C 542.917969 369.046875 541.617188 368.726562 540.304688 368.46875 C 538.988281 368.210938 537.667969 368.019531 536.332031 367.890625 C 535 367.765625 533.664062 367.703125 532.324219 367.707031 Z M 716.171875 301.582031 C 697.601562 272.691406 671.574219 247.113281 638.855469 225.539062 C 575.640625 183.921875 492.582031 160.992188 404.976562 160.992188 C 376.046875 160.960938 347.347656 163.492188 318.875 168.589844 C 301.042969 151.445312 281.316406 136.867188 259.695312 124.855469 C 179.902344 85.015625 109.589844 99.851562 74.058594 112.652344 C 73.390625 112.886719 72.738281 113.167969 72.101562 113.484375 C 71.464844 113.804688 70.851562 114.160156 70.261719 114.554688 C 69.671875 114.949219 69.105469 115.378906 68.570312 115.847656 C 68.03125 116.3125 67.523438 116.808594 67.050781 117.335938 C 66.574219 117.867188 66.132812 118.421875 65.726562 119.007812 C 65.324219 119.589844 64.953125 120.195312 64.625 120.824219 C 64.292969 121.457031 64.003906 122.101562 63.753906 122.769531 C 63.507812 123.433594 63.300781 124.113281 63.136719 124.804688 C 62.96875 125.496094 62.851562 126.195312 62.773438 126.902344 C 62.695312 127.609375 62.664062 128.316406 62.671875 129.027344 C 62.683594 129.738281 62.742188 130.445312 62.839844 131.152344 C 62.941406 131.855469 63.082031 132.550781 63.269531 133.234375 C 63.457031 133.921875 63.683594 134.59375 63.953125 135.25 C 64.222656 135.910156 64.535156 136.546875 64.882812 137.164062 C 65.234375 137.785156 65.621094 138.378906 66.046875 138.949219 C 66.46875 139.519531 66.929688 140.0625 67.417969 140.574219 C 92.476562 166.484375 133.929688 217.695312 123.742188 264.253906 C 84.128906 304.777344 62.648438 353.636719 62.648438 404.507812 C 62.648438 456.351562 84.128906 505.210938 123.742188 545.734375 C 133.933594 592.296875 92.480469 643.527344 67.425781 669.4375 C 66.933594 669.949219 66.476562 670.492188 66.054688 671.0625 C 65.628906 671.632812 65.242188 672.226562 64.894531 672.84375 C 64.546875 673.460938 64.234375 674.101562 63.964844 674.757812 C 63.695312 675.414062 63.46875 676.085938 63.28125 676.769531 C 63.097656 677.457031 62.953125 678.152344 62.855469 678.855469 C 62.757812 679.558594 62.699219 680.265625 62.691406 680.972656 C 62.679688 681.683594 62.710938 682.390625 62.789062 683.097656 C 62.867188 683.804688 62.988281 684.503906 63.152344 685.191406 C 63.316406 685.882812 63.523438 686.5625 63.773438 687.226562 C 64.019531 687.890625 64.308594 688.539062 64.640625 689.167969 C 64.96875 689.796875 65.335938 690.402344 65.742188 690.984375 C 66.148438 691.570312 66.589844 692.125 67.0625 692.652344 C 67.539062 693.179688 68.042969 693.679688 68.578125 694.144531 C 69.117188 694.609375 69.679688 695.039062 70.269531 695.433594 C 70.859375 695.828125 71.472656 696.183594 72.109375 696.503906 C 72.742188 696.820312 73.394531 697.097656 74.066406 697.335938 C 109.59375 710.136719 179.910156 725.003906 259.726562 685.144531 C 281.347656 673.128906 301.074219 658.550781 318.90625 641.40625 C 347.375 646.507812 376.074219 649.042969 405 649.011719 C 492.632812 649.011719 575.691406 626.109375 638.882812 584.492188 C 671.601562 562.917969 697.625 537.367188 716.195312 508.449219 C 736.882812 476.269531 747.355469 441.613281 747.355469 405.503906 C 747.332031 368.421875 736.859375 333.796875 716.171875 301.585938 Z M 401.398438 588.957031 C 383.355469 589.011719 365.386719 587.886719 347.492188 585.585938 C 329.59375 583.285156 311.925781 579.828125 294.484375 575.210938 L 270.421875 598.394531 C 257.015625 611.253906 242.21875 622.246094 226.03125 631.367188 C 216.21875 636.277344 206.035156 640.230469 195.480469 643.21875 C 184.921875 646.207031 174.179688 648.179688 163.25 649.140625 C 164.425781 647.023438 165.5 644.882812 166.648438 642.738281 C 190.757812 598.367188 197.265625 558.492188 186.160156 523.113281 C 146.726562 492.082031 123.074219 452.351562 123.074219 409.082031 C 123.074219 309.75 247.691406 229.222656 401.398438 229.222656 C 555.105469 229.222656 679.746094 309.753906 679.746094 409.082031 C 679.746094 508.425781 555.132812 588.957031 401.398438 588.957031 Z M 401.398438 588.957031 " fill-opacity="1" fill-rule="nonzero"/></svg>